<svg xmlns="http://www.w3.org/2000/svg" xmlns:xlink="http://www.w3.org/1999/xlink" width="500" zoomAndPan="magnify" viewBox="0 0 375 374.999991" height="500" preserveAspectRatio="xMidYMid meet" version="1.2"><defs><clipPath id="1f407f4058"><path d="M 112.5 179 L 255 179 L 255 204 L 112.5 204 Z M 112.5 179 "/></clipPath><clipPath id="9677e9f753"><path d="M 219 196 L 262.5 196 L 262.5 208 L 219 208 Z M 219 196 "/></clipPath></defs><g id="d73bbf604a"><rect x="0" width="375" y="0" height="374.999991" style="fill:#ffffff;fill-opacity:1;stroke:none;"/><rect x="0" width="375" y="0" height="374.999991" style="fill:#ffffff;fill-opacity:1;stroke:none;"/><g clip-rule="nonzero" clip-path="url(#1f407f4058)"><path style=" stroke:none;fill-rule:nonzero;fill:#000000;fill-opacity:1;" d="M 112.5 196.851562 C 124.613281 193.613281 138.085938 194.707031 152.867188 199.917969 C 168.371094 205.390625 170.292969 205.558594 184.335938 198.019531 C 192.730469 193.511719 201.382812 189.988281 211.441406 191.8125 C 220.257812 193.410156 222.703125 197.308594 230.792969 190.121094 C 246.425781 176.234375 256.488281 186.984375 251.578125 203.195312 C 260.699219 189.621094 248.3125 167.523438 228.191406 187.796875 C 222.535156 193.5 218.214844 189.890625 211.730469 188.292969 C 201.511719 185.78125 191.175781 188.757812 180.796875 193.761719 C 167.792969 200.03125 167.945312 200.359375 153.339844 196.066406 C 136.101562 191.007812 122.976562 191.992188 112.5 196.851562 "/></g><g clip-rule="nonzero" clip-path="url(#9677e9f753)"><path style=" stroke:none;fill-rule:nonzero;fill:#000000;fill-opacity:1;" d="M 219.707031 196.578125 C 235.847656 199.792969 249.117188 213.601562 262.5 205.402344 C 247.410156 208.582031 235.679688 194.890625 219.707031 196.578125 "/></g><path style=" stroke:none;fill-rule:nonzero;fill:#000000;fill-opacity:1;" d="M 179.261719 165.1875 C 184.332031 173.9375 190.027344 181.109375 196.289062 186.515625 C 186.78125 183.871094 181.707031 176.078125 179.261719 165.1875 "/><path style=" stroke:none;fill-rule:nonzero;fill:#000000;fill-opacity:1;" d="M 157.539062 195.402344 C 166.117188 187.847656 164.898438 169.878906 165.082031 163.066406 C 165.222656 157.878906 166.066406 153.179688 170.90625 150.382812 C 179.21875 145.578125 179.546875 148.046875 181.929688 137.664062 C 182.617188 134.660156 183.164062 131.464844 183.949219 128.59375 C 188.050781 113.582031 207.320312 121.746094 201.140625 137.261719 C 197.960938 145.230469 189.597656 154.839844 183.421875 144.167969 C 185.761719 157.578125 199.925781 149.480469 204.046875 138.449219 C 210.628906 120.835938 186.875 109.773438 181.632812 128.304688 C 180.835938 131.132812 180.230469 134.121094 179.476562 136.980469 C 177.589844 144.109375 177.40625 143.21875 171.285156 145.886719 C 163.074219 149.46875 161.925781 155.152344 161.648438 163.238281 C 161.394531 170.742188 162.179688 185.183594 157.539062 195.402344 "/><path style=" stroke:none;fill-rule:nonzero;fill:#000000;fill-opacity:1;" d="M 220.414062 187.191406 C 214.421875 180.199219 204.300781 179.535156 199.164062 168.910156 C 194.65625 159.585938 194.945312 153.746094 182.394531 150.855469 C 191.871094 155.347656 192.667969 160.785156 195.589844 169.472656 C 198.566406 178.34375 214.601562 183.179688 220.414062 187.191406 "/><path style=" stroke:none;fill-rule:nonzero;fill:#000000;fill-opacity:1;" d="M 184.789062 121.484375 C 181.6875 111.660156 193.808594 109.957031 192.621094 118.457031 C 190.367188 112.960938 184.683594 114.941406 184.789062 121.484375 "/><g style="fill:#000000;fill-opacity:1;"><g transform="translate(1.571837, 271.061965)"><path style="stroke:none" d="M 31.875 -35.09375 L 31.875 0 L 28.09375 0 L 28.09375 -33.90625 C 26.4375 -33.207031 25.019531 -32.101562 23.84375 -30.59375 C 22.664062 -29.09375 21.675781 -27.320312 20.875 -25.28125 C 20.082031 -23.238281 19.453125 -21.066406 18.984375 -18.765625 C 18.523438 -16.460938 18.175781 -14.160156 17.9375 -11.859375 C 17.707031 -9.554688 17.550781 -7.382812 17.46875 -5.34375 C 17.394531 -3.300781 17.359375 -1.519531 17.359375 0 L 16.859375 0 L 3.4375 -30.921875 L 2.03125 -34.203125 L 2.03125 0 L 1.734375 0 L 1.734375 -35.09375 L 5.859375 -35.09375 L 17.203125 -8.90625 C 17.398438 -11.1875 17.695312 -13.546875 18.09375 -15.984375 C 18.488281 -18.421875 19.035156 -20.773438 19.734375 -23.046875 C 20.429688 -25.316406 21.328125 -27.363281 22.421875 -29.1875 C 23.515625 -31.007812 24.832031 -32.445312 26.375 -33.5 C 27.914062 -34.5625 29.75 -35.09375 31.875 -35.09375 Z M 31.875 -35.09375 "/></g></g><g style="fill:#000000;fill-opacity:1;"><g transform="translate(35.17646, 271.061965)"><path style="stroke:none" d="M 25.90625 0 L 20.28125 -13.46875 C 18.164062 -13.269531 16.421875 -12.835938 15.046875 -12.171875 C 13.671875 -11.515625 12.554688 -10.710938 11.703125 -9.765625 C 10.859375 -8.828125 10.179688 -7.84375 9.671875 -6.8125 C 9.160156 -5.78125 8.703125 -4.816406 8.296875 -3.921875 C 7.835938 -2.703125 7.332031 -1.6875 6.78125 -0.875 C 6.238281 -0.0625 5.40625 0.328125 4.28125 0.296875 C 4.144531 0.265625 4.019531 0.234375 3.90625 0.203125 C 3.789062 0.171875 3.648438 0.0859375 3.484375 -0.046875 C 2.117188 -0.640625 1.570312 -2.082031 1.84375 -4.375 C 1.96875 -5.46875 2.203125 -6.703125 2.546875 -8.078125 C 2.898438 -9.453125 3.378906 -10.9375 3.984375 -12.53125 C 4.867188 -14.914062 5.914062 -17.441406 7.125 -20.109375 C 8.34375 -22.773438 9.625 -25.410156 10.96875 -28.015625 C 12.3125 -30.617188 13.609375 -32.976562 14.859375 -35.09375 L 15.21875 -35.09375 L 30.078125 0 Z M 20.140625 -13.828125 L 12.828125 -30.828125 C 11.304688 -27.910156 9.773438 -24.832031 8.234375 -21.59375 C 6.691406 -18.363281 5.390625 -15.3125 4.328125 -12.4375 C 3.734375 -10.84375 3.257812 -9.363281 2.90625 -8 C 2.5625 -6.644531 2.320312 -5.4375 2.1875 -4.375 C 2.15625 -3.34375 2.238281 -2.472656 2.4375 -1.765625 C 2.632812 -1.054688 3.03125 -0.597656 3.625 -0.390625 C 3.789062 -0.359375 3.914062 -0.328125 4 -0.296875 C 4.082031 -0.265625 4.191406 -0.21875 4.328125 -0.15625 C 5.316406 -0.0820312 6.0625 -0.425781 6.5625 -1.1875 C 7.0625 -1.957031 7.507812 -2.90625 7.90625 -4.03125 C 8.300781 -4.957031 8.765625 -5.941406 9.296875 -6.984375 C 9.828125 -8.023438 10.53125 -9.023438 11.40625 -9.984375 C 12.289062 -10.953125 13.425781 -11.785156 14.8125 -12.484375 C 16.207031 -13.179688 17.984375 -13.628906 20.140625 -13.828125 Z M 20.140625 -13.828125 "/></g></g><g style="fill:#000000;fill-opacity:1;"><g transform="translate(66.991491, 271.061965)"><path style="stroke:none" d="M 4.28125 -26.65625 C 4.28125 -28.507812 4.722656 -30.046875 5.609375 -31.265625 C 6.503906 -32.492188 7.671875 -33.445312 9.109375 -34.125 C 10.554688 -34.8125 12.140625 -35.226562 13.859375 -35.375 C 15.585938 -35.519531 17.296875 -35.425781 18.984375 -35.09375 C 20.679688 -34.769531 22.21875 -34.222656 23.59375 -33.453125 C 24.96875 -32.691406 26.003906 -31.734375 26.703125 -30.578125 L 26.703125 -25.359375 C 25.441406 -27.910156 23.984375 -29.894531 22.328125 -31.3125 C 20.671875 -32.738281 18.960938 -33.707031 17.203125 -34.21875 C 15.441406 -34.738281 13.765625 -34.882812 12.171875 -34.65625 C 10.585938 -34.425781 9.210938 -33.910156 8.046875 -33.109375 C 7.085938 -32.484375 6.429688 -31.6875 6.078125 -30.71875 C 5.734375 -29.757812 5.832031 -28.675781 6.375 -27.46875 C 6.925781 -26.257812 8.03125 -24.972656 9.6875 -23.609375 C 11.351562 -22.253906 13.691406 -20.863281 16.703125 -19.4375 C 18.523438 -18.675781 20.238281 -17.8125 21.84375 -16.84375 C 23.457031 -15.882812 24.769531 -14.722656 25.78125 -13.359375 C 26.789062 -12.003906 27.296875 -10.351562 27.296875 -8.40625 C 27.296875 -7.070312 27.035156 -5.882812 26.515625 -4.84375 C 26.003906 -3.800781 25.300781 -2.914062 24.40625 -2.1875 C 22.988281 -1.09375 21.285156 -0.394531 19.296875 -0.09375 C 17.304688 0.195312 15.222656 0.128906 13.046875 -0.296875 C 10.878906 -0.722656 8.800781 -1.507812 6.8125 -2.65625 C 4.820312 -3.800781 3.128906 -5.269531 1.734375 -7.0625 L 1.734375 -13.96875 C 2.960938 -10.882812 4.503906 -8.316406 6.359375 -6.265625 C 8.210938 -4.210938 10.207031 -2.6875 12.34375 -1.6875 C 14.488281 -0.695312 16.578125 -0.265625 18.609375 -0.390625 C 20.648438 -0.523438 22.453125 -1.253906 24.015625 -2.578125 C 24.835938 -3.273438 25.359375 -4.097656 25.578125 -5.046875 C 25.796875 -5.992188 25.597656 -7.046875 24.984375 -8.203125 C 24.367188 -9.359375 23.238281 -10.570312 21.59375 -11.84375 C 19.957031 -13.125 17.695312 -14.429688 14.8125 -15.765625 C 13.019531 -16.554688 11.320312 -17.429688 9.71875 -18.390625 C 8.113281 -19.359375 6.804688 -20.503906 5.796875 -21.828125 C 4.785156 -23.148438 4.28125 -24.757812 4.28125 -26.65625 Z M 4.28125 -26.65625 "/></g></g><g style="fill:#000000;fill-opacity:1;"><g transform="translate(96.022713, 271.061965)"><path style="stroke:none" d="M 4.28125 -26.65625 C 4.28125 -28.507812 4.722656 -30.046875 5.609375 -31.265625 C 6.503906 -32.492188 7.671875 -33.445312 9.109375 -34.125 C 10.554688 -34.8125 12.140625 -35.226562 13.859375 -35.375 C 15.585938 -35.519531 17.296875 -35.425781 18.984375 -35.09375 C 20.679688 -34.769531 22.21875 -34.222656 23.59375 -33.453125 C 24.96875 -32.691406 26.003906 -31.734375 26.703125 -30.578125 L 26.703125 -25.359375 C 25.441406 -27.910156 23.984375 -29.894531 22.328125 -31.3125 C 20.671875 -32.738281 18.960938 -33.707031 17.203125 -34.21875 C 15.441406 -34.738281 13.765625 -34.882812 12.171875 -34.65625 C 10.585938 -34.425781 9.210938 -33.910156 8.046875 -33.109375 C 7.085938 -32.484375 6.429688 -31.6875 6.078125 -30.71875 C 5.734375 -29.757812 5.832031 -28.675781 6.375 -27.46875 C 6.925781 -26.257812 8.03125 -24.972656 9.6875 -23.609375 C 11.351562 -22.253906 13.691406 -20.863281 16.703125 -19.4375 C 18.523438 -18.675781 20.238281 -17.8125 21.84375 -16.84375 C 23.457031 -15.882812 24.769531 -14.722656 25.78125 -13.359375 C 26.789062 -12.003906 27.296875 -10.351562 27.296875 -8.40625 C 27.296875 -7.070312 27.035156 -5.882812 26.515625 -4.84375 C 26.003906 -3.800781 25.300781 -2.914062 24.40625 -2.1875 C 22.988281 -1.09375 21.285156 -0.394531 19.296875 -0.09375 C 17.304688 0.195312 15.222656 0.128906 13.046875 -0.296875 C 10.878906 -0.722656 8.800781 -1.507812 6.8125 -2.65625 C 4.820312 -3.800781 3.128906 -5.269531 1.734375 -7.0625 L 1.734375 -13.96875 C 2.960938 -10.882812 4.503906 -8.316406 6.359375 -6.265625 C 8.210938 -4.210938 10.207031 -2.6875 12.34375 -1.6875 C 14.488281 -0.695312 16.578125 -0.265625 18.609375 -0.390625 C 20.648438 -0.523438 22.453125 -1.253906 24.015625 -2.578125 C 24.835938 -3.273438 25.359375 -4.097656 25.578125 -5.046875 C 25.796875 -5.992188 25.597656 -7.046875 24.984375 -8.203125 C 24.367188 -9.359375 23.238281 -10.570312 21.59375 -11.84375 C 19.957031 -13.125 17.695312 -14.429688 14.8125 -15.765625 C 13.019531 -16.554688 11.320312 -17.429688 9.71875 -18.390625 C 8.113281 -19.359375 6.804688 -20.503906 5.796875 -21.828125 C 4.785156 -23.148438 4.28125 -24.757812 4.28125 -26.65625 Z M 4.28125 -26.65625 "/></g></g><g style="fill:#000000;fill-opacity:1;"><g transform="translate(125.053935, 271.061965)"><path style="stroke:none" d="M 25.90625 0 L 20.28125 -13.46875 C 18.164062 -13.269531 16.421875 -12.835938 15.046875 -12.171875 C 13.671875 -11.515625 12.554688 -10.710938 11.703125 -9.765625 C 10.859375 -8.828125 10.179688 -7.84375 9.671875 -6.8125 C 9.160156 -5.78125 8.703125 -4.816406 8.296875 -3.921875 C 7.835938 -2.703125 7.332031 -1.6875 6.78125 -0.875 C 6.238281 -0.0625 5.40625 0.328125 4.28125 0.296875 C 4.144531 0.265625 4.019531 0.234375 3.90625 0.203125 C 3.789062 0.171875 3.648438 0.0859375 3.484375 -0.046875 C 2.117188 -0.640625 1.570312 -2.082031 1.84375 -4.375 C 1.96875 -5.46875 2.203125 -6.703125 2.546875 -8.078125 C 2.898438 -9.453125 3.378906 -10.9375 3.984375 -12.53125 C 4.867188 -14.914062 5.914062 -17.441406 7.125 -20.109375 C 8.34375 -22.773438 9.625 -25.410156 10.96875 -28.015625 C 12.3125 -30.617188 13.609375 -32.976562 14.859375 -35.09375 L 15.21875 -35.09375 L 30.078125 0 Z M 20.140625 -13.828125 L 12.828125 -30.828125 C 11.304688 -27.910156 9.773438 -24.832031 8.234375 -21.59375 C 6.691406 -18.363281 5.390625 -15.3125 4.328125 -12.4375 C 3.734375 -10.84375 3.257812 -9.363281 2.90625 -8 C 2.5625 -6.644531 2.320312 -5.4375 2.1875 -4.375 C 2.15625 -3.34375 2.238281 -2.472656 2.4375 -1.765625 C 2.632812 -1.054688 3.03125 -0.597656 3.625 -0.390625 C 3.789062 -0.359375 3.914062 -0.328125 4 -0.296875 C 4.082031 -0.265625 4.191406 -0.21875 4.328125 -0.15625 C 5.316406 -0.0820312 6.0625 -0.425781 6.5625 -1.1875 C 7.0625 -1.957031 7.507812 -2.90625 7.90625 -4.03125 C 8.300781 -4.957031 8.765625 -5.941406 9.296875 -6.984375 C 9.828125 -8.023438 10.53125 -9.023438 11.40625 -9.984375 C 12.289062 -10.953125 13.425781 -11.785156 14.8125 -12.484375 C 16.207031 -13.179688 17.984375 -13.628906 20.140625 -13.828125 Z M 20.140625 -13.828125 "/></g></g><g style="fill:#000000;fill-opacity:1;"><g transform="translate(156.868965, 271.061965)"><path style="stroke:none" d="M 29.140625 -3.734375 L 29.140625 -16.109375 C 27.117188 -16.109375 25.171875 -16.050781 23.296875 -15.9375 C 21.421875 -15.820312 19.6875 -15.519531 18.09375 -15.03125 C 16.507812 -14.550781 15.117188 -13.765625 13.921875 -12.671875 L 13.921875 -16.5 L 32.90625 -16.5 L 32.90625 -6.109375 C 31.851562 -4.753906 30.554688 -3.578125 29.015625 -2.578125 C 27.472656 -1.585938 25.773438 -0.859375 23.921875 -0.390625 C 21.597656 0.296875 19.300781 0.484375 17.03125 0.171875 C 14.757812 -0.140625 12.632812 -0.875 10.65625 -2.03125 C 8.6875 -3.195312 6.976562 -4.695312 5.53125 -6.53125 C 4.09375 -8.375 3.046875 -10.472656 2.390625 -12.828125 C 1.753906 -15.179688 1.601562 -17.507812 1.9375 -19.8125 C 2.269531 -22.113281 3.015625 -24.265625 4.171875 -26.265625 C 5.335938 -28.273438 6.832031 -29.992188 8.65625 -31.421875 C 10.476562 -32.847656 12.582031 -33.875 14.96875 -34.5 C 17.15625 -35.101562 19.117188 -35.363281 20.859375 -35.28125 C 22.597656 -35.195312 24.101562 -34.90625 25.375 -34.40625 C 26.65625 -33.90625 27.722656 -33.347656 28.578125 -32.734375 C 29.441406 -32.117188 30.082031 -31.578125 30.5 -31.109375 C 30.914062 -30.648438 31.125 -30.421875 31.125 -30.421875 L 31.125 -25.25 C 31.09375 -25.382812 30.84375 -25.859375 30.375 -26.671875 C 29.914062 -27.484375 29.253906 -28.421875 28.390625 -29.484375 C 27.523438 -30.546875 26.453125 -31.539062 25.171875 -32.46875 C 23.898438 -33.394531 22.421875 -34.054688 20.734375 -34.453125 C 19.046875 -34.847656 17.140625 -34.75 15.015625 -34.15625 C 12.890625 -33.5625 11.144531 -32.535156 9.78125 -31.078125 C 8.425781 -29.617188 7.410156 -27.910156 6.734375 -25.953125 C 6.054688 -23.992188 5.679688 -21.953125 5.609375 -19.828125 C 5.546875 -17.710938 5.765625 -15.710938 6.265625 -13.828125 C 6.765625 -11.929688 7.566406 -10.078125 8.671875 -8.265625 C 9.785156 -6.460938 11.117188 -4.878906 12.671875 -3.515625 C 14.234375 -2.160156 15.957031 -1.203125 17.84375 -0.640625 C 19.738281 -0.078125 21.726562 -0.078125 23.8125 -0.640625 C 24.9375 -0.910156 25.929688 -1.328125 26.796875 -1.890625 C 27.660156 -2.453125 28.441406 -3.066406 29.140625 -3.734375 Z M 29.140625 -3.734375 "/></g></g><g style="fill:#000000;fill-opacity:1;"><g transform="translate(191.517519, 271.061965)"><path style="stroke:none" d="M 5.5625 -23.421875 L 5.5625 -0.390625 L 13.96875 -0.390625 C 16.125 -0.390625 17.890625 -0.921875 19.265625 -1.984375 C 20.640625 -3.046875 21.773438 -4.835938 22.671875 -7.359375 L 21.53125 0 L 1.734375 0 L 1.734375 -35.09375 L 21.828125 -35.09375 L 21.828125 -31.125 C 20.671875 -32.25 19.546875 -33.066406 18.453125 -33.578125 C 17.359375 -34.097656 16.117188 -34.421875 14.734375 -34.546875 C 13.359375 -34.679688 11.660156 -34.75 9.640625 -34.75 L 5.5625 -34.75 L 5.5625 -26.703125 C 5.5625 -24.441406 5.941406 -22.710938 6.703125 -21.515625 C 7.472656 -20.328125 8.617188 -19.523438 10.140625 -19.109375 C 11.671875 -18.703125 13.578125 -18.5 15.859375 -18.5 L 15.859375 -14.5625 C 15.128906 -15.394531 14.257812 -16.050781 13.25 -16.53125 C 12.238281 -17.007812 11.207031 -17.503906 10.15625 -18.015625 C 9.113281 -18.535156 8.175781 -19.203125 7.34375 -20.015625 C 6.519531 -20.828125 5.925781 -21.960938 5.5625 -23.421875 Z M 5.5625 -23.421875 "/></g></g><g style="fill:#000000;fill-opacity:1;"><g transform="translate(215.925613, 271.061965)"><path style="stroke:none" d=""/></g></g><g style="fill:#000000;fill-opacity:1;"><g transform="translate(229.794982, 271.061965)"><path style="stroke:none" d="M 41.421875 -6.46875 L 41.515625 -6.265625 C 40.921875 -5.472656 40.25 -4.671875 39.5 -3.859375 C 38.757812 -3.046875 37.929688 -2.363281 37.015625 -1.8125 C 36.097656 -1.269531 35.078125 -1 33.953125 -1 C 32.398438 -1 30.941406 -1.300781 29.578125 -1.90625 C 28.222656 -2.519531 27.03125 -3.226562 26 -4.03125 C 24.40625 -2.863281 22.753906 -1.78125 21.046875 -0.78125 C 19.347656 0.207031 17.628906 0.988281 15.890625 1.5625 C 14.148438 2.144531 12.414062 2.382812 10.6875 2.28125 C 8.96875 2.1875 7.28125 1.625 5.625 0.59375 C 4.363281 -0.226562 3.410156 -1.328125 2.765625 -2.703125 C 2.117188 -4.078125 1.796875 -5.578125 1.796875 -7.203125 C 1.796875 -8.828125 2.148438 -10.4375 2.859375 -12.03125 C 3.566406 -13.625 4.648438 -15.082031 6.109375 -16.40625 C 7.566406 -17.726562 9.441406 -18.753906 11.734375 -19.484375 C 10.242188 -21.472656 9.265625 -23.445312 8.796875 -25.40625 C 8.335938 -27.363281 8.3125 -29.15625 8.71875 -30.78125 C 9.132812 -32.40625 9.945312 -33.703125 11.15625 -34.671875 C 12.375 -35.648438 13.925781 -36.140625 15.8125 -36.140625 C 17.363281 -36.140625 18.726562 -35.757812 19.90625 -35 C 21.082031 -34.238281 21.953125 -33.242188 22.515625 -32.015625 C 23.085938 -30.785156 23.28125 -29.472656 23.09375 -28.078125 C 22.914062 -26.691406 22.253906 -25.34375 21.109375 -24.03125 C 19.960938 -22.726562 18.242188 -21.628906 15.953125 -20.734375 C 17.617188 -18.515625 19.476562 -16.144531 21.53125 -13.625 C 23.582031 -11.101562 25.816406 -8.648438 28.234375 -6.265625 C 29.523438 -7.359375 30.609375 -8.492188 31.484375 -9.671875 C 32.367188 -10.847656 32.992188 -11.75 33.359375 -12.375 L 33.609375 -12.125 C 33.109375 -11.300781 32.4375 -10.320312 31.59375 -9.1875 C 30.75 -8.0625 29.695312 -6.988281 28.4375 -5.96875 C 29.363281 -5.300781 30.28125 -4.675781 31.1875 -4.09375 C 32.101562 -3.519531 33.078125 -3.066406 34.109375 -2.734375 C 35.566406 -2.398438 36.84375 -2.539062 37.9375 -3.15625 C 39.03125 -3.769531 40.191406 -4.875 41.421875 -6.46875 Z M 11.875 -19.296875 C 10.15625 -18.660156 8.664062 -17.769531 7.40625 -16.625 C 6.144531 -15.488281 5.21875 -14.195312 4.625 -12.75 C 4.03125 -11.3125 3.847656 -9.796875 4.078125 -8.203125 C 4.304688 -6.609375 5.050781 -5.035156 6.3125 -3.484375 C 7.90625 -1.628906 9.757812 -0.519531 11.875 -0.15625 C 14 0.207031 16.253906 0.0078125 18.640625 -0.75 C 21.023438 -1.507812 23.394531 -2.648438 25.75 -4.171875 C 24.726562 -5.035156 23.578125 -6.101562 22.296875 -7.375 C 21.023438 -8.65625 19.734375 -10.015625 18.421875 -11.453125 C 17.109375 -12.898438 15.878906 -14.3125 14.734375 -15.6875 C 13.597656 -17.0625 12.644531 -18.265625 11.875 -19.296875 Z M 15.8125 -35.640625 C 13.988281 -35.640625 12.632812 -35.101562 11.75 -34.03125 C 10.875 -32.957031 10.703125 -31.332031 11.234375 -29.15625 C 11.765625 -26.988281 13.257812 -24.265625 15.71875 -20.984375 C 17.070312 -21.742188 18.15625 -22.734375 18.96875 -23.953125 C 19.78125 -25.179688 20.316406 -26.46875 20.578125 -27.8125 C 20.847656 -29.15625 20.84375 -30.421875 20.5625 -31.609375 C 20.28125 -32.804688 19.738281 -33.773438 18.9375 -34.515625 C 18.144531 -35.265625 17.101562 -35.640625 15.8125 -35.640625 Z M 15.8125 -35.640625 "/></g></g><g style="fill:#000000;fill-opacity:1;"><g transform="translate(273.04353, 271.061965)"><path style="stroke:none" d=""/></g></g><g style="fill:#000000;fill-opacity:1;"><g transform="translate(286.912898, 271.061965)"><path style="stroke:none" d="M 4.28125 -26.65625 C 4.28125 -28.507812 4.722656 -30.046875 5.609375 -31.265625 C 6.503906 -32.492188 7.671875 -33.445312 9.109375 -34.125 C 10.554688 -34.8125 12.140625 -35.226562 13.859375 -35.375 C 15.585938 -35.519531 17.296875 -35.425781 18.984375 -35.09375 C 20.679688 -34.769531 22.21875 -34.222656 23.59375 -33.453125 C 24.96875 -32.691406 26.003906 -31.734375 26.703125 -30.578125 L 26.703125 -25.359375 C 25.441406 -27.910156 23.984375 -29.894531 22.328125 -31.3125 C 20.671875 -32.738281 18.960938 -33.707031 17.203125 -34.21875 C 15.441406 -34.738281 13.765625 -34.882812 12.171875 -34.65625 C 10.585938 -34.425781 9.210938 -33.910156 8.046875 -33.109375 C 7.085938 -32.484375 6.429688 -31.6875 6.078125 -30.71875 C 5.734375 -29.757812 5.832031 -28.675781 6.375 -27.46875 C 6.925781 -26.257812 8.03125 -24.972656 9.6875 -23.609375 C 11.351562 -22.253906 13.691406 -20.863281 16.703125 -19.4375 C 18.523438 -18.675781 20.238281 -17.8125 21.84375 -16.84375 C 23.457031 -15.882812 24.769531 -14.722656 25.78125 -13.359375 C 26.789062 -12.003906 27.296875 -10.351562 27.296875 -8.40625 C 27.296875 -7.070312 27.035156 -5.882812 26.515625 -4.84375 C 26.003906 -3.800781 25.300781 -2.914062 24.40625 -2.1875 C 22.988281 -1.09375 21.285156 -0.394531 19.296875 -0.09375 C 17.304688 0.195312 15.222656 0.128906 13.046875 -0.296875 C 10.878906 -0.722656 8.800781 -1.507812 6.8125 -2.65625 C 4.820312 -3.800781 3.128906 -5.269531 1.734375 -7.0625 L 1.734375 -13.96875 C 2.960938 -10.882812 4.503906 -8.316406 6.359375 -6.265625 C 8.210938 -4.210938 10.207031 -2.6875 12.34375 -1.6875 C 14.488281 -0.695312 16.578125 -0.265625 18.609375 -0.390625 C 20.648438 -0.523438 22.453125 -1.253906 24.015625 -2.578125 C 24.835938 -3.273438 25.359375 -4.097656 25.578125 -5.046875 C 25.796875 -5.992188 25.597656 -7.046875 24.984375 -8.203125 C 24.367188 -9.359375 23.238281 -10.570312 21.59375 -11.84375 C 19.957031 -13.125 17.695312 -14.429688 14.8125 -15.765625 C 13.019531 -16.554688 11.320312 -17.429688 9.71875 -18.390625 C 8.113281 -19.359375 6.804688 -20.503906 5.796875 -21.828125 C 4.785156 -23.148438 4.28125 -24.757812 4.28125 -26.65625 Z M 4.28125 -26.65625 "/></g></g><g style="fill:#000000;fill-opacity:1;"><g transform="translate(315.944131, 271.061965)"><path style="stroke:none" d="M 13.71875 -19.09375 C 12.53125 -19.09375 11.421875 -19.414062 10.390625 -20.0625 C 9.359375 -20.707031 8.445312 -21.59375 7.65625 -22.71875 C 6.726562 -24.039062 6.082031 -25.695312 5.71875 -27.6875 L 5.71875 0 L 1.734375 0 L 1.734375 -35.09375 L 10.546875 -35.09375 C 12.992188 -35.09375 15.226562 -34.828125 17.25 -34.296875 C 19.269531 -33.773438 20.882812 -32.929688 22.09375 -31.765625 C 23.3125 -30.609375 23.921875 -29.066406 23.921875 -27.140625 C 23.921875 -25.316406 23.421875 -23.804688 22.421875 -22.609375 C 21.429688 -21.421875 20.164062 -20.535156 18.625 -19.953125 C 17.082031 -19.378906 15.445312 -19.09375 13.71875 -19.09375 Z M 19.9375 -27.140625 C 19.9375 -29.035156 19.476562 -30.535156 18.5625 -31.640625 C 17.65625 -32.753906 16.476562 -33.550781 15.03125 -34.03125 C 13.59375 -34.507812 12.097656 -34.75 10.546875 -34.75 L 5.71875 -34.75 L 5.71875 -31.46875 C 5.71875 -29.75 5.90625 -28.164062 6.28125 -26.71875 C 6.664062 -25.28125 7.222656 -24.03125 7.953125 -22.96875 C 9.441406 -20.644531 11.363281 -19.484375 13.71875 -19.484375 C 15.375 -19.484375 16.820312 -20.078125 18.0625 -21.265625 C 19.3125 -22.460938 19.9375 -24.421875 19.9375 -27.140625 Z M 19.9375 -27.140625 "/></g></g><g style="fill:#000000;fill-opacity:1;"><g transform="translate(341.595009, 271.061965)"><path style="stroke:none" d="M 25.90625 0 L 20.28125 -13.46875 C 18.164062 -13.269531 16.421875 -12.835938 15.046875 -12.171875 C 13.671875 -11.515625 12.554688 -10.710938 11.703125 -9.765625 C 10.859375 -8.828125 10.179688 -7.84375 9.671875 -6.8125 C 9.160156 -5.78125 8.703125 -4.816406 8.296875 -3.921875 C 7.835938 -2.703125 7.332031 -1.6875 6.78125 -0.875 C 6.238281 -0.0625 5.40625 0.328125 4.28125 0.296875 C 4.144531 0.265625 4.019531 0.234375 3.90625 0.203125 C 3.789062 0.171875 3.648438 0.0859375 3.484375 -0.046875 C 2.117188 -0.640625 1.570312 -2.082031 1.84375 -4.375 C 1.96875 -5.46875 2.203125 -6.703125 2.546875 -8.078125 C 2.898438 -9.453125 3.378906 -10.9375 3.984375 -12.53125 C 4.867188 -14.914062 5.914062 -17.441406 7.125 -20.109375 C 8.34375 -22.773438 9.625 -25.410156 10.96875 -28.015625 C 12.3125 -30.617188 13.609375 -32.976562 14.859375 -35.09375 L 15.21875 -35.09375 L 30.078125 0 Z M 20.140625 -13.828125 L 12.828125 -30.828125 C 11.304688 -27.910156 9.773438 -24.832031 8.234375 -21.59375 C 6.691406 -18.363281 5.390625 -15.3125 4.328125 -12.4375 C 3.734375 -10.84375 3.257812 -9.363281 2.90625 -8 C 2.5625 -6.644531 2.320312 -5.4375 2.1875 -4.375 C 2.15625 -3.34375 2.238281 -2.472656 2.4375 -1.765625 C 2.632812 -1.054688 3.03125 -0.597656 3.625 -0.390625 C 3.789062 -0.359375 3.914062 -0.328125 4 -0.296875 C 4.082031 -0.265625 4.191406 -0.21875 4.328125 -0.15625 C 5.316406 -0.0820312 6.0625 -0.425781 6.5625 -1.1875 C 7.0625 -1.957031 7.507812 -2.90625 7.90625 -4.03125 C 8.300781 -4.957031 8.765625 -5.941406 9.296875 -6.984375 C 9.828125 -8.023438 10.53125 -9.023438 11.40625 -9.984375 C 12.289062 -10.953125 13.425781 -11.785156 14.8125 -12.484375 C 16.207031 -13.179688 17.984375 -13.628906 20.140625 -13.828125 Z M 20.140625 -13.828125 "/></g></g></g></svg>