<svg xmlns="http://www.w3.org/2000/svg" xmlns:xlink="http://www.w3.org/1999/xlink" width="945" zoomAndPan="magnify" viewBox="0 0 708.75 226.499993" height="302" preserveAspectRatio="xMidYMid meet" version="1.0"><defs><g/><clipPath id="73ddb35780"><path d="M 1 0 L 707.84375 0 L 707.84375 226 L 1 226 Z M 1 0 " clip-rule="nonzero"/></clipPath><clipPath id="3f4c760535"><path d="M 1.402344 0 L 707.097656 0 L 707.097656 226 L 1.402344 226 Z M 1.402344 0 " clip-rule="nonzero"/></clipPath><clipPath id="cd342a6df8"><path d="M 0.402344 0 L 706.097656 0 L 706.097656 225.730469 L 0.402344 225.730469 Z M 0.402344 0 " clip-rule="nonzero"/></clipPath><clipPath id="9670737e91"><path d="M 45.164062 131 L 193 131 L 193 157 L 45.164062 157 Z M 45.164062 131 " clip-rule="nonzero"/></clipPath><clipPath id="583437c58b"><path d="M 156 149 L 201.378906 149 L 201.378906 162 L 156 162 Z M 156 149 " clip-rule="nonzero"/></clipPath><clipPath id="efab70b541"><rect x="0" width="384" y="0" height="50"/></clipPath><clipPath id="b3a62822df"><rect x="0" width="707" y="0" height="226"/></clipPath></defs><g clip-path="url(#73ddb35780)"><path fill="#ffffff" d="M 1.402344 0 L 707.097656 0 L 707.097656 226 L 1.402344 226 Z M 1.402344 0 " fill-opacity="1" fill-rule="nonzero"/></g><g clip-path="url(#3f4c760535)"><g transform="matrix(1, 0, 0, 1, 1, 0)"><g clip-path="url(#b3a62822df)"><g clip-path="url(#cd342a6df8)"><path fill="#ffffff" d="M 0.402344 0 L 706.746094 0 L 706.746094 225.730469 L 0.402344 225.730469 Z M 0.402344 0 " fill-opacity="1" fill-rule="nonzero"/></g><g clip-path="url(#9670737e91)"><path fill="#695125" d="M 45.164062 149.542969 C 57.75 146.179688 71.753906 147.316406 87.113281 152.730469 C 103.222656 158.414062 105.222656 158.59375 119.8125 150.757812 C 128.535156 146.074219 137.527344 142.410156 147.984375 144.304688 C 157.140625 145.96875 159.6875 150.019531 168.089844 142.550781 C 184.335938 128.121094 194.796875 139.289062 189.695312 156.132812 C 199.167969 142.03125 186.300781 119.066406 165.390625 140.132812 C 159.507812 146.058594 155.019531 142.308594 148.28125 140.648438 C 137.660156 138.035156 126.921875 141.132812 116.136719 146.332031 C 102.625 152.847656 102.78125 153.1875 87.601562 148.726562 C 69.6875 143.472656 56.050781 144.492188 45.164062 149.542969 " fill-opacity="1" fill-rule="nonzero"/></g><g clip-path="url(#583437c58b)"><path fill="#695125" d="M 156.570312 149.261719 C 173.34375 152.601562 187.136719 166.949219 201.042969 158.429688 C 185.359375 161.730469 173.171875 147.503906 156.570312 149.261719 " fill-opacity="1" fill-rule="nonzero"/></g><path fill="#695125" d="M 114.542969 116.636719 C 119.808594 125.730469 125.726562 133.183594 132.238281 138.800781 C 122.351562 136.054688 117.082031 127.957031 114.542969 116.636719 " fill-opacity="1" fill-rule="nonzero"/><path fill="#695125" d="M 91.96875 148.035156 C 100.882812 140.1875 99.613281 121.515625 99.804688 114.433594 C 99.949219 109.042969 100.828125 104.160156 105.859375 101.25 C 114.496094 96.257812 114.835938 98.828125 117.3125 88.035156 C 118.027344 84.914062 118.59375 81.59375 119.410156 78.609375 C 123.671875 63.011719 143.699219 71.492188 137.277344 87.617188 C 133.976562 95.898438 125.28125 105.882812 118.863281 94.792969 C 121.296875 108.730469 136.015625 100.316406 140.296875 88.851562 C 147.136719 70.546875 122.453125 59.050781 117.003906 78.308594 C 116.175781 81.246094 115.546875 84.355469 114.765625 87.324219 C 112.804688 94.730469 112.613281 93.804688 106.253906 96.582031 C 97.71875 100.300781 96.527344 106.210938 96.238281 114.609375 C 95.976562 122.410156 96.792969 137.417969 91.96875 148.035156 " fill-opacity="1" fill-rule="nonzero"/><path fill="#695125" d="M 157.304688 139.503906 C 151.078125 132.238281 140.5625 131.546875 135.222656 120.503906 C 130.539062 110.820312 130.839844 104.746094 117.796875 101.746094 C 127.644531 106.410156 128.472656 112.0625 131.507812 121.089844 C 134.605469 130.308594 151.265625 135.335938 157.304688 139.503906 " fill-opacity="1" fill-rule="nonzero"/><path fill="#695125" d="M 120.285156 71.21875 C 117.0625 61.015625 129.660156 59.242188 128.425781 68.074219 C 126.082031 62.363281 120.175781 64.421875 120.285156 71.21875 " fill-opacity="1" fill-rule="nonzero"/><g transform="matrix(1, 0, 0, 1, 288, 86)"><g clip-path="url(#efab70b541)"><g fill="#695125" fill-opacity="1"><g transform="translate(0.808052, 36.924962)"><g><path d="M 30.421875 -33.5 L 30.421875 0 L 26.8125 0 L 26.8125 -32.359375 C 25.226562 -31.691406 23.875 -30.640625 22.75 -29.203125 C 21.625 -27.765625 20.679688 -26.070312 19.921875 -24.125 C 19.171875 -22.1875 18.570312 -20.113281 18.125 -17.90625 C 17.6875 -15.707031 17.351562 -13.507812 17.125 -11.3125 C 16.90625 -9.113281 16.753906 -7.039062 16.671875 -5.09375 C 16.597656 -3.15625 16.5625 -1.457031 16.5625 0 L 16.09375 0 L 3.28125 -29.515625 L 1.953125 -32.640625 L 1.953125 0 L 1.65625 0 L 1.65625 -33.5 L 5.59375 -33.5 L 16.421875 -8.5 C 16.609375 -10.675781 16.890625 -12.925781 17.265625 -15.25 C 17.648438 -17.582031 18.171875 -19.832031 18.828125 -22 C 19.492188 -24.164062 20.347656 -26.117188 21.390625 -27.859375 C 22.441406 -29.597656 23.703125 -30.972656 25.171875 -31.984375 C 26.640625 -32.992188 28.390625 -33.5 30.421875 -33.5 Z M 30.421875 -33.5 "/></g></g></g><g fill="#695125" fill-opacity="1"><g transform="translate(32.884734, 36.924962)"><g><path d="M 24.71875 0 L 19.359375 -12.859375 C 17.335938 -12.671875 15.671875 -12.257812 14.359375 -11.625 C 13.046875 -10.988281 11.984375 -10.21875 11.171875 -9.3125 C 10.367188 -8.414062 9.722656 -7.476562 9.234375 -6.5 C 8.742188 -5.519531 8.304688 -4.601562 7.921875 -3.75 C 7.484375 -2.582031 7 -1.609375 6.46875 -0.828125 C 5.945312 -0.0546875 5.148438 0.3125 4.078125 0.28125 C 3.953125 0.25 3.832031 0.21875 3.71875 0.1875 C 3.613281 0.15625 3.484375 0.078125 3.328125 -0.046875 C 2.023438 -0.617188 1.5 -1.992188 1.75 -4.171875 C 1.882812 -5.210938 2.113281 -6.390625 2.4375 -7.703125 C 2.769531 -9.023438 3.222656 -10.441406 3.796875 -11.953125 C 4.648438 -14.234375 5.65625 -16.644531 6.8125 -19.1875 C 7.96875 -21.738281 9.1875 -24.253906 10.46875 -26.734375 C 11.75 -29.222656 12.988281 -31.476562 14.1875 -33.5 L 14.515625 -33.5 L 28.703125 0 Z M 19.21875 -13.1875 L 12.25 -29.421875 C 10.789062 -26.640625 9.320312 -23.703125 7.84375 -20.609375 C 6.375 -17.523438 5.132812 -14.609375 4.125 -11.859375 C 3.5625 -10.335938 3.113281 -8.925781 2.78125 -7.625 C 2.445312 -6.332031 2.21875 -5.179688 2.09375 -4.171875 C 2.0625 -3.191406 2.140625 -2.363281 2.328125 -1.6875 C 2.515625 -1.007812 2.894531 -0.570312 3.46875 -0.375 C 3.625 -0.34375 3.738281 -0.3125 3.8125 -0.28125 C 3.894531 -0.25 4 -0.203125 4.125 -0.140625 C 5.070312 -0.078125 5.78125 -0.410156 6.25 -1.140625 C 6.726562 -1.867188 7.160156 -2.769531 7.546875 -3.84375 C 7.921875 -4.726562 8.363281 -5.664062 8.875 -6.65625 C 9.382812 -7.65625 10.054688 -8.613281 10.890625 -9.53125 C 11.722656 -10.457031 12.804688 -11.25 14.140625 -11.90625 C 15.472656 -12.570312 17.164062 -13 19.21875 -13.1875 Z M 19.21875 -13.1875 "/></g></g></g><g fill="#695125" fill-opacity="1"><g transform="translate(63.253193, 36.924962)"><g><path d="M 4.078125 -25.4375 C 4.078125 -27.207031 4.503906 -28.675781 5.359375 -29.84375 C 6.210938 -31.019531 7.328125 -31.929688 8.703125 -32.578125 C 10.078125 -33.222656 11.585938 -33.613281 13.234375 -33.75 C 14.878906 -33.894531 16.507812 -33.8125 18.125 -33.5 C 19.738281 -33.1875 21.203125 -32.664062 22.515625 -31.9375 C 23.828125 -31.207031 24.816406 -30.289062 25.484375 -29.1875 L 25.484375 -24.203125 C 24.273438 -26.640625 22.878906 -28.535156 21.296875 -29.890625 C 19.722656 -31.253906 18.097656 -32.179688 16.421875 -32.671875 C 14.742188 -33.160156 13.144531 -33.296875 11.625 -33.078125 C 10.101562 -32.859375 8.789062 -32.367188 7.6875 -31.609375 C 6.769531 -31.003906 6.144531 -30.242188 5.8125 -29.328125 C 5.476562 -28.410156 5.570312 -27.375 6.09375 -26.21875 C 6.613281 -25.0625 7.664062 -23.832031 9.25 -22.53125 C 10.832031 -21.238281 13.0625 -19.910156 15.9375 -18.546875 C 17.675781 -17.828125 19.3125 -17.003906 20.84375 -16.078125 C 22.382812 -15.160156 23.632812 -14.050781 24.59375 -12.75 C 25.5625 -11.457031 26.046875 -9.878906 26.046875 -8.015625 C 26.046875 -6.753906 25.800781 -5.625 25.3125 -4.625 C 24.820312 -3.625 24.148438 -2.78125 23.296875 -2.09375 C 21.941406 -1.039062 20.3125 -0.375 18.40625 -0.09375 C 16.507812 0.1875 14.523438 0.125 12.453125 -0.28125 C 10.378906 -0.695312 8.394531 -1.445312 6.5 -2.53125 C 4.601562 -3.625 2.988281 -5.023438 1.65625 -6.734375 L 1.65625 -13.328125 C 2.832031 -10.390625 4.304688 -7.9375 6.078125 -5.96875 C 7.847656 -4.007812 9.753906 -2.554688 11.796875 -1.609375 C 13.835938 -0.660156 15.828125 -0.25 17.765625 -0.375 C 19.710938 -0.5 21.429688 -1.195312 22.921875 -2.46875 C 23.710938 -3.132812 24.207031 -3.914062 24.40625 -4.8125 C 24.613281 -5.71875 24.425781 -6.722656 23.84375 -7.828125 C 23.257812 -8.929688 22.179688 -10.09375 20.609375 -11.3125 C 19.046875 -12.53125 16.890625 -13.773438 14.140625 -15.046875 C 12.429688 -15.804688 10.804688 -16.644531 9.265625 -17.5625 C 7.734375 -18.476562 6.484375 -19.566406 5.515625 -20.828125 C 4.554688 -22.097656 4.078125 -23.632812 4.078125 -25.4375 Z M 4.078125 -25.4375 "/></g></g></g><g fill="#695125" fill-opacity="1"><g transform="translate(90.964417, 36.924962)"><g><path d="M 4.078125 -25.4375 C 4.078125 -27.207031 4.503906 -28.675781 5.359375 -29.84375 C 6.210938 -31.019531 7.328125 -31.929688 8.703125 -32.578125 C 10.078125 -33.222656 11.585938 -33.613281 13.234375 -33.75 C 14.878906 -33.894531 16.507812 -33.8125 18.125 -33.5 C 19.738281 -33.1875 21.203125 -32.664062 22.515625 -31.9375 C 23.828125 -31.207031 24.816406 -30.289062 25.484375 -29.1875 L 25.484375 -24.203125 C 24.273438 -26.640625 22.878906 -28.535156 21.296875 -29.890625 C 19.722656 -31.253906 18.097656 -32.179688 16.421875 -32.671875 C 14.742188 -33.160156 13.144531 -33.296875 11.625 -33.078125 C 10.101562 -32.859375 8.789062 -32.367188 7.6875 -31.609375 C 6.769531 -31.003906 6.144531 -30.242188 5.8125 -29.328125 C 5.476562 -28.410156 5.570312 -27.375 6.09375 -26.21875 C 6.613281 -25.0625 7.664062 -23.832031 9.25 -22.53125 C 10.832031 -21.238281 13.0625 -19.910156 15.9375 -18.546875 C 17.675781 -17.828125 19.3125 -17.003906 20.84375 -16.078125 C 22.382812 -15.160156 23.632812 -14.050781 24.59375 -12.75 C 25.5625 -11.457031 26.046875 -9.878906 26.046875 -8.015625 C 26.046875 -6.753906 25.800781 -5.625 25.3125 -4.625 C 24.820312 -3.625 24.148438 -2.78125 23.296875 -2.09375 C 21.941406 -1.039062 20.3125 -0.375 18.40625 -0.09375 C 16.507812 0.1875 14.523438 0.125 12.453125 -0.28125 C 10.378906 -0.695312 8.394531 -1.445312 6.5 -2.53125 C 4.601562 -3.625 2.988281 -5.023438 1.65625 -6.734375 L 1.65625 -13.328125 C 2.832031 -10.390625 4.304688 -7.9375 6.078125 -5.96875 C 7.847656 -4.007812 9.753906 -2.554688 11.796875 -1.609375 C 13.835938 -0.660156 15.828125 -0.25 17.765625 -0.375 C 19.710938 -0.5 21.429688 -1.195312 22.921875 -2.46875 C 23.710938 -3.132812 24.207031 -3.914062 24.40625 -4.8125 C 24.613281 -5.71875 24.425781 -6.722656 23.84375 -7.828125 C 23.257812 -8.929688 22.179688 -10.09375 20.609375 -11.3125 C 19.046875 -12.53125 16.890625 -13.773438 14.140625 -15.046875 C 12.429688 -15.804688 10.804688 -16.644531 9.265625 -17.5625 C 7.734375 -18.476562 6.484375 -19.566406 5.515625 -20.828125 C 4.554688 -22.097656 4.078125 -23.632812 4.078125 -25.4375 Z M 4.078125 -25.4375 "/></g></g></g><g fill="#695125" fill-opacity="1"><g transform="translate(118.675642, 36.924962)"><g><path d="M 24.71875 0 L 19.359375 -12.859375 C 17.335938 -12.671875 15.671875 -12.257812 14.359375 -11.625 C 13.046875 -10.988281 11.984375 -10.21875 11.171875 -9.3125 C 10.367188 -8.414062 9.722656 -7.476562 9.234375 -6.5 C 8.742188 -5.519531 8.304688 -4.601562 7.921875 -3.75 C 7.484375 -2.582031 7 -1.609375 6.46875 -0.828125 C 5.945312 -0.0546875 5.148438 0.3125 4.078125 0.28125 C 3.953125 0.25 3.832031 0.21875 3.71875 0.1875 C 3.613281 0.15625 3.484375 0.078125 3.328125 -0.046875 C 2.023438 -0.617188 1.5 -1.992188 1.75 -4.171875 C 1.882812 -5.210938 2.113281 -6.390625 2.4375 -7.703125 C 2.769531 -9.023438 3.222656 -10.441406 3.796875 -11.953125 C 4.648438 -14.234375 5.65625 -16.644531 6.8125 -19.1875 C 7.96875 -21.738281 9.1875 -24.253906 10.46875 -26.734375 C 11.75 -29.222656 12.988281 -31.476562 14.1875 -33.5 L 14.515625 -33.5 L 28.703125 0 Z M 19.21875 -13.1875 L 12.25 -29.421875 C 10.789062 -26.640625 9.320312 -23.703125 7.84375 -20.609375 C 6.375 -17.523438 5.132812 -14.609375 4.125 -11.859375 C 3.5625 -10.335938 3.113281 -8.925781 2.78125 -7.625 C 2.445312 -6.332031 2.21875 -5.179688 2.09375 -4.171875 C 2.0625 -3.191406 2.140625 -2.363281 2.328125 -1.6875 C 2.515625 -1.007812 2.894531 -0.570312 3.46875 -0.375 C 3.625 -0.34375 3.738281 -0.3125 3.8125 -0.28125 C 3.894531 -0.25 4 -0.203125 4.125 -0.140625 C 5.070312 -0.078125 5.78125 -0.410156 6.25 -1.140625 C 6.726562 -1.867188 7.160156 -2.769531 7.546875 -3.84375 C 7.921875 -4.726562 8.363281 -5.664062 8.875 -6.65625 C 9.382812 -7.65625 10.054688 -8.613281 10.890625 -9.53125 C 11.722656 -10.457031 12.804688 -11.25 14.140625 -11.90625 C 15.472656 -12.570312 17.164062 -13 19.21875 -13.1875 Z M 19.21875 -13.1875 "/></g></g></g><g fill="#695125" fill-opacity="1"><g transform="translate(149.044101, 36.924962)"><g><path d="M 27.8125 -3.5625 L 27.8125 -15.375 C 25.875 -15.375 24.007812 -15.316406 22.21875 -15.203125 C 20.4375 -15.097656 18.785156 -14.816406 17.265625 -14.359375 C 15.753906 -13.898438 14.425781 -13.144531 13.28125 -12.09375 L 13.28125 -15.75 L 31.40625 -15.75 L 31.40625 -5.84375 C 30.394531 -4.539062 29.15625 -3.414062 27.6875 -2.46875 C 26.21875 -1.519531 24.597656 -0.820312 22.828125 -0.375 C 20.609375 0.28125 18.414062 0.457031 16.25 0.15625 C 14.082031 -0.132812 12.054688 -0.832031 10.171875 -1.9375 C 8.296875 -3.050781 6.671875 -4.484375 5.296875 -6.234375 C 3.921875 -7.992188 2.914062 -10 2.28125 -12.25 C 1.675781 -14.488281 1.53125 -16.707031 1.84375 -18.90625 C 2.164062 -21.101562 2.878906 -23.160156 3.984375 -25.078125 C 5.085938 -26.992188 6.507812 -28.628906 8.25 -29.984375 C 9.988281 -31.347656 12 -32.332031 14.28125 -32.9375 C 16.375 -33.5 18.25 -33.738281 19.90625 -33.65625 C 21.5625 -33.582031 23 -33.304688 24.21875 -32.828125 C 25.4375 -32.359375 26.457031 -31.832031 27.28125 -31.25 C 28.101562 -30.664062 28.710938 -30.148438 29.109375 -29.703125 C 29.503906 -29.265625 29.703125 -29.046875 29.703125 -29.046875 L 29.703125 -24.109375 C 29.671875 -24.234375 29.429688 -24.679688 28.984375 -25.453125 C 28.546875 -26.234375 27.914062 -27.128906 27.09375 -28.140625 C 26.269531 -29.148438 25.25 -30.097656 24.03125 -30.984375 C 22.8125 -31.867188 21.394531 -32.5 19.78125 -32.875 C 18.175781 -33.257812 16.359375 -33.164062 14.328125 -32.59375 C 12.304688 -32.03125 10.644531 -31.050781 9.34375 -29.65625 C 8.050781 -28.257812 7.078125 -26.628906 6.421875 -24.765625 C 5.773438 -22.898438 5.421875 -20.953125 5.359375 -18.921875 C 5.296875 -16.898438 5.503906 -14.988281 5.984375 -13.1875 C 6.453125 -11.382812 7.21875 -9.617188 8.28125 -7.890625 C 9.34375 -6.171875 10.613281 -4.660156 12.09375 -3.359375 C 13.582031 -2.066406 15.226562 -1.148438 17.03125 -0.609375 C 18.832031 -0.078125 20.734375 -0.078125 22.734375 -0.609375 C 23.804688 -0.867188 24.753906 -1.265625 25.578125 -1.796875 C 26.398438 -2.335938 27.144531 -2.925781 27.8125 -3.5625 Z M 27.8125 -3.5625 "/></g></g></g><g fill="#695125" fill-opacity="1"><g transform="translate(182.117247, 36.924962)"><g><path d="M 5.3125 -22.34375 L 5.3125 -0.375 L 13.328125 -0.375 C 15.390625 -0.375 17.078125 -0.878906 18.390625 -1.890625 C 19.703125 -2.910156 20.785156 -4.617188 21.640625 -7.015625 L 20.546875 0 L 1.65625 0 L 1.65625 -33.5 L 20.828125 -33.5 L 20.828125 -29.703125 C 19.722656 -30.773438 18.648438 -31.554688 17.609375 -32.046875 C 16.566406 -32.546875 15.382812 -32.859375 14.0625 -32.984375 C 12.75 -33.109375 11.128906 -33.171875 9.203125 -33.171875 L 5.3125 -33.171875 L 5.3125 -25.484375 C 5.3125 -23.328125 5.675781 -21.679688 6.40625 -20.546875 C 7.132812 -19.410156 8.222656 -18.644531 9.671875 -18.25 C 11.128906 -17.851562 12.953125 -17.65625 15.140625 -17.65625 L 15.140625 -13.90625 C 14.441406 -14.695312 13.609375 -15.320312 12.640625 -15.78125 C 11.679688 -16.238281 10.703125 -16.710938 9.703125 -17.203125 C 8.703125 -17.691406 7.804688 -18.320312 7.015625 -19.09375 C 6.234375 -19.875 5.664062 -20.957031 5.3125 -22.34375 Z M 5.3125 -22.34375 "/></g></g></g><g fill="#695125" fill-opacity="1"><g transform="translate(205.415549, 36.924962)"><g><path d="M 4.078125 -25.4375 C 4.078125 -27.207031 4.503906 -28.675781 5.359375 -29.84375 C 6.210938 -31.019531 7.328125 -31.929688 8.703125 -32.578125 C 10.078125 -33.222656 11.585938 -33.613281 13.234375 -33.75 C 14.878906 -33.894531 16.507812 -33.8125 18.125 -33.5 C 19.738281 -33.1875 21.203125 -32.664062 22.515625 -31.9375 C 23.828125 -31.207031 24.816406 -30.289062 25.484375 -29.1875 L 25.484375 -24.203125 C 24.273438 -26.640625 22.878906 -28.535156 21.296875 -29.890625 C 19.722656 -31.253906 18.097656 -32.179688 16.421875 -32.671875 C 14.742188 -33.160156 13.144531 -33.296875 11.625 -33.078125 C 10.101562 -32.859375 8.789062 -32.367188 7.6875 -31.609375 C 6.769531 -31.003906 6.144531 -30.242188 5.8125 -29.328125 C 5.476562 -28.410156 5.570312 -27.375 6.09375 -26.21875 C 6.613281 -25.0625 7.664062 -23.832031 9.25 -22.53125 C 10.832031 -21.238281 13.0625 -19.910156 15.9375 -18.546875 C 17.675781 -17.828125 19.3125 -17.003906 20.84375 -16.078125 C 22.382812 -15.160156 23.632812 -14.050781 24.59375 -12.75 C 25.5625 -11.457031 26.046875 -9.878906 26.046875 -8.015625 C 26.046875 -6.753906 25.800781 -5.625 25.3125 -4.625 C 24.820312 -3.625 24.148438 -2.78125 23.296875 -2.09375 C 21.941406 -1.039062 20.3125 -0.375 18.40625 -0.09375 C 16.507812 0.1875 14.523438 0.125 12.453125 -0.28125 C 10.378906 -0.695312 8.394531 -1.445312 6.5 -2.53125 C 4.601562 -3.625 2.988281 -5.023438 1.65625 -6.734375 L 1.65625 -13.328125 C 2.832031 -10.390625 4.304688 -7.9375 6.078125 -5.96875 C 7.847656 -4.007812 9.753906 -2.554688 11.796875 -1.609375 C 13.835938 -0.660156 15.828125 -0.25 17.765625 -0.375 C 19.710938 -0.5 21.429688 -1.195312 22.921875 -2.46875 C 23.710938 -3.132812 24.207031 -3.914062 24.40625 -4.8125 C 24.613281 -5.71875 24.425781 -6.722656 23.84375 -7.828125 C 23.257812 -8.929688 22.179688 -10.09375 20.609375 -11.3125 C 19.046875 -12.53125 16.890625 -13.773438 14.140625 -15.046875 C 12.429688 -15.804688 10.804688 -16.644531 9.265625 -17.5625 C 7.734375 -18.476562 6.484375 -19.566406 5.515625 -20.828125 C 4.554688 -22.097656 4.078125 -23.632812 4.078125 -25.4375 Z M 4.078125 -25.4375 "/></g></g></g><g fill="#695125" fill-opacity="1"><g transform="translate(233.126784, 36.924962)"><g/></g></g><g fill="#695125" fill-opacity="1"><g transform="translate(246.365538, 36.924962)"><g><path d="M 39.53125 -6.171875 L 39.625 -5.984375 C 39.050781 -5.222656 38.410156 -4.453125 37.703125 -3.671875 C 36.992188 -2.898438 36.203125 -2.253906 35.328125 -1.734375 C 34.460938 -1.210938 33.488281 -0.953125 32.40625 -0.953125 C 30.925781 -0.953125 29.535156 -1.242188 28.234375 -1.828125 C 26.929688 -2.410156 25.789062 -3.082031 24.8125 -3.84375 C 23.300781 -2.738281 21.726562 -1.707031 20.09375 -0.75 C 18.46875 0.195312 16.820312 0.945312 15.15625 1.5 C 13.5 2.050781 11.847656 2.28125 10.203125 2.1875 C 8.554688 2.09375 6.941406 1.550781 5.359375 0.5625 C 4.160156 -0.21875 3.25 -1.265625 2.625 -2.578125 C 2.007812 -3.898438 1.703125 -5.332031 1.703125 -6.875 C 1.703125 -8.425781 2.039062 -9.960938 2.71875 -11.484375 C 3.40625 -13.003906 4.441406 -14.394531 5.828125 -15.65625 C 7.222656 -16.925781 9.015625 -17.910156 11.203125 -18.609375 C 9.773438 -20.503906 8.835938 -22.382812 8.390625 -24.25 C 7.953125 -26.113281 7.929688 -27.820312 8.328125 -29.375 C 8.722656 -30.925781 9.5 -32.164062 10.65625 -33.09375 C 11.8125 -34.03125 13.289062 -34.5 15.09375 -34.5 C 16.582031 -34.5 17.882812 -34.132812 19 -33.40625 C 20.125 -32.675781 20.953125 -31.722656 21.484375 -30.546875 C 22.023438 -29.378906 22.207031 -28.128906 22.03125 -26.796875 C 21.863281 -25.472656 21.234375 -24.1875 20.140625 -22.9375 C 19.046875 -21.6875 17.410156 -20.632812 15.234375 -19.78125 C 16.816406 -17.664062 18.585938 -15.40625 20.546875 -13 C 22.503906 -10.59375 24.640625 -8.253906 26.953125 -5.984375 C 28.179688 -7.023438 29.210938 -8.109375 30.046875 -9.234375 C 30.890625 -10.359375 31.488281 -11.21875 31.84375 -11.8125 L 32.078125 -11.578125 C 31.597656 -10.785156 30.957031 -9.851562 30.15625 -8.78125 C 29.351562 -7.707031 28.347656 -6.675781 27.140625 -5.6875 C 28.023438 -5.0625 28.898438 -4.46875 29.765625 -3.90625 C 30.640625 -3.351562 31.566406 -2.921875 32.546875 -2.609375 C 33.941406 -2.296875 35.160156 -2.429688 36.203125 -3.015625 C 37.242188 -3.597656 38.351562 -4.648438 39.53125 -6.171875 Z M 11.34375 -18.40625 C 9.695312 -17.8125 8.269531 -16.96875 7.0625 -15.875 C 5.863281 -14.78125 4.976562 -13.546875 4.40625 -12.171875 C 3.84375 -10.796875 3.671875 -9.347656 3.890625 -7.828125 C 4.109375 -6.304688 4.820312 -4.804688 6.03125 -3.328125 C 7.539062 -1.554688 9.304688 -0.492188 11.328125 -0.140625 C 13.359375 0.203125 15.515625 0.015625 17.796875 -0.703125 C 20.078125 -1.429688 22.335938 -2.523438 24.578125 -3.984375 C 23.597656 -4.804688 22.5 -5.828125 21.28125 -7.046875 C 20.0625 -8.265625 18.828125 -9.5625 17.578125 -10.9375 C 16.328125 -12.3125 15.15625 -13.65625 14.0625 -14.96875 C 12.976562 -16.28125 12.070312 -17.425781 11.34375 -18.40625 Z M 15.09375 -34.03125 C 13.351562 -34.03125 12.0625 -33.515625 11.21875 -32.484375 C 10.382812 -31.453125 10.21875 -29.898438 10.71875 -27.828125 C 11.226562 -25.753906 12.65625 -23.15625 15 -20.03125 C 16.289062 -20.75 17.320312 -21.691406 18.09375 -22.859375 C 18.875 -24.035156 19.390625 -25.265625 19.640625 -26.546875 C 19.898438 -27.828125 19.894531 -29.035156 19.625 -30.171875 C 19.351562 -31.316406 18.835938 -32.242188 18.078125 -32.953125 C 17.316406 -33.671875 16.320312 -34.03125 15.09375 -34.03125 Z M 15.09375 -34.03125 "/></g></g></g><g fill="#695125" fill-opacity="1"><g transform="translate(287.647652, 36.924962)"><g/></g></g><g fill="#695125" fill-opacity="1"><g transform="translate(300.886406, 36.924962)"><g><path d="M 4.078125 -25.4375 C 4.078125 -27.207031 4.503906 -28.675781 5.359375 -29.84375 C 6.210938 -31.019531 7.328125 -31.929688 8.703125 -32.578125 C 10.078125 -33.222656 11.585938 -33.613281 13.234375 -33.75 C 14.878906 -33.894531 16.507812 -33.8125 18.125 -33.5 C 19.738281 -33.1875 21.203125 -32.664062 22.515625 -31.9375 C 23.828125 -31.207031 24.816406 -30.289062 25.484375 -29.1875 L 25.484375 -24.203125 C 24.273438 -26.640625 22.878906 -28.535156 21.296875 -29.890625 C 19.722656 -31.253906 18.097656 -32.179688 16.421875 -32.671875 C 14.742188 -33.160156 13.144531 -33.296875 11.625 -33.078125 C 10.101562 -32.859375 8.789062 -32.367188 7.6875 -31.609375 C 6.769531 -31.003906 6.144531 -30.242188 5.8125 -29.328125 C 5.476562 -28.410156 5.570312 -27.375 6.09375 -26.21875 C 6.613281 -25.0625 7.664062 -23.832031 9.25 -22.53125 C 10.832031 -21.238281 13.0625 -19.910156 15.9375 -18.546875 C 17.675781 -17.828125 19.3125 -17.003906 20.84375 -16.078125 C 22.382812 -15.160156 23.632812 -14.050781 24.59375 -12.75 C 25.5625 -11.457031 26.046875 -9.878906 26.046875 -8.015625 C 26.046875 -6.753906 25.800781 -5.625 25.3125 -4.625 C 24.820312 -3.625 24.148438 -2.78125 23.296875 -2.09375 C 21.941406 -1.039062 20.3125 -0.375 18.40625 -0.09375 C 16.507812 0.1875 14.523438 0.125 12.453125 -0.28125 C 10.378906 -0.695312 8.394531 -1.445312 6.5 -2.53125 C 4.601562 -3.625 2.988281 -5.023438 1.65625 -6.734375 L 1.65625 -13.328125 C 2.832031 -10.390625 4.304688 -7.9375 6.078125 -5.96875 C 7.847656 -4.007812 9.753906 -2.554688 11.796875 -1.609375 C 13.835938 -0.660156 15.828125 -0.25 17.765625 -0.375 C 19.710938 -0.5 21.429688 -1.195312 22.921875 -2.46875 C 23.710938 -3.132812 24.207031 -3.914062 24.40625 -4.8125 C 24.613281 -5.71875 24.425781 -6.722656 23.84375 -7.828125 C 23.257812 -8.929688 22.179688 -10.09375 20.609375 -11.3125 C 19.046875 -12.53125 16.890625 -13.773438 14.140625 -15.046875 C 12.429688 -15.804688 10.804688 -16.644531 9.265625 -17.5625 C 7.734375 -18.476562 6.484375 -19.566406 5.515625 -20.828125 C 4.554688 -22.097656 4.078125 -23.632812 4.078125 -25.4375 Z M 4.078125 -25.4375 "/></g></g></g><g fill="#695125" fill-opacity="1"><g transform="translate(328.597641, 36.924962)"><g><path d="M 13.09375 -18.21875 C 11.957031 -18.21875 10.898438 -18.523438 9.921875 -19.140625 C 8.941406 -19.765625 8.070312 -20.613281 7.3125 -21.6875 C 6.425781 -22.945312 5.804688 -24.53125 5.453125 -26.4375 L 5.453125 0 L 1.65625 0 L 1.65625 -33.5 L 10.0625 -33.5 C 12.40625 -33.5 14.539062 -33.242188 16.46875 -32.734375 C 18.394531 -32.234375 19.9375 -31.425781 21.09375 -30.3125 C 22.25 -29.207031 22.828125 -27.738281 22.828125 -25.90625 C 22.828125 -24.164062 22.351562 -22.726562 21.40625 -21.59375 C 20.457031 -20.457031 19.242188 -19.609375 17.765625 -19.046875 C 16.296875 -18.492188 14.738281 -18.21875 13.09375 -18.21875 Z M 19.03125 -25.90625 C 19.03125 -27.707031 18.59375 -29.140625 17.71875 -30.203125 C 16.851562 -31.265625 15.734375 -32.023438 14.359375 -32.484375 C 12.984375 -32.941406 11.550781 -33.171875 10.0625 -33.171875 L 5.453125 -33.171875 L 5.453125 -30.03125 C 5.453125 -28.382812 5.632812 -26.875 6 -25.5 C 6.363281 -24.125 6.894531 -22.929688 7.59375 -21.921875 C 9.019531 -19.710938 10.851562 -18.609375 13.09375 -18.609375 C 14.675781 -18.609375 16.0625 -19.175781 17.25 -20.3125 C 18.4375 -21.445312 19.03125 -23.3125 19.03125 -25.90625 Z M 19.03125 -25.90625 "/></g></g></g><g fill="#695125" fill-opacity="1"><g transform="translate(353.082197, 36.924962)"><g><path d="M 24.71875 0 L 19.359375 -12.859375 C 17.335938 -12.671875 15.671875 -12.257812 14.359375 -11.625 C 13.046875 -10.988281 11.984375 -10.21875 11.171875 -9.3125 C 10.367188 -8.414062 9.722656 -7.476562 9.234375 -6.5 C 8.742188 -5.519531 8.304688 -4.601562 7.921875 -3.75 C 7.484375 -2.582031 7 -1.609375 6.46875 -0.828125 C 5.945312 -0.0546875 5.148438 0.3125 4.078125 0.28125 C 3.953125 0.25 3.832031 0.21875 3.71875 0.1875 C 3.613281 0.15625 3.484375 0.078125 3.328125 -0.046875 C 2.023438 -0.617188 1.5 -1.992188 1.75 -4.171875 C 1.882812 -5.210938 2.113281 -6.390625 2.4375 -7.703125 C 2.769531 -9.023438 3.222656 -10.441406 3.796875 -11.953125 C 4.648438 -14.234375 5.65625 -16.644531 6.8125 -19.1875 C 7.96875 -21.738281 9.1875 -24.253906 10.46875 -26.734375 C 11.75 -29.222656 12.988281 -31.476562 14.1875 -33.5 L 14.515625 -33.5 L 28.703125 0 Z M 19.21875 -13.1875 L 12.25 -29.421875 C 10.789062 -26.640625 9.320312 -23.703125 7.84375 -20.609375 C 6.375 -17.523438 5.132812 -14.609375 4.125 -11.859375 C 3.5625 -10.335938 3.113281 -8.925781 2.78125 -7.625 C 2.445312 -6.332031 2.21875 -5.179688 2.09375 -4.171875 C 2.0625 -3.191406 2.140625 -2.363281 2.328125 -1.6875 C 2.515625 -1.007812 2.894531 -0.570312 3.46875 -0.375 C 3.625 -0.34375 3.738281 -0.3125 3.8125 -0.28125 C 3.894531 -0.25 4 -0.203125 4.125 -0.140625 C 5.070312 -0.078125 5.78125 -0.410156 6.25 -1.140625 C 6.726562 -1.867188 7.160156 -2.769531 7.546875 -3.84375 C 7.921875 -4.726562 8.363281 -5.664062 8.875 -6.65625 C 9.382812 -7.65625 10.054688 -8.613281 10.890625 -9.53125 C 11.722656 -10.457031 12.804688 -11.25 14.140625 -11.90625 C 15.472656 -12.570312 17.164062 -13 19.21875 -13.1875 Z M 19.21875 -13.1875 "/></g></g></g></g></g></g></g></g></svg>